<?xml version="1.0" encoding="UTF-8" standalone="no"?>
<!DOCTYPE svg PUBLIC "-//W3C//DTD SVG 1.1//EN" "http://www.w3.org/Graphics/SVG/1.1/DTD/svg11.dtd">
<svg width="100%" height="100%" viewBox="0 0 700 700" version="1.1" xmlns="http://www.w3.org/2000/svg" xmlns:xlink="http://www.w3.org/1999/xlink" xml:space="preserve" xmlns:serif="http://www.serif.com/" style="fill-rule:evenodd;clip-rule:evenodd;stroke-linejoin:round;stroke-miterlimit:2;">
    <g transform="matrix(1,0,0,1,-0.004185,69.9942)">
        <path d="M556.61,275.01L556.61,229.549L512.024,229.549L512.024,95.819L460.399,95.819L460.399,139.507L421.516,139.503L421.516,94.456L375.653,94.46L375.653,48.999L324.02,48.999L324.02,94.46L278.559,94.46L278.559,139.507L233.52,139.507L233.52,184.964L188.059,184.964L188.059,229.558L143.465,229.558L143.465,275.019L98.004,275.015L98.004,326.648L143.465,326.648L143.465,459.368L142.949,459.368L142.949,510.989L556.609,511.013L556.609,326.643L602.004,326.643L602.004,275.01L556.61,275.01ZM369.86,375.3L369.86,459.366L330.188,459.366L330.188,375.3L369.86,375.3ZM414.934,191.13L414.934,236.603L460.266,236.603L460.266,281.177L504.981,281.177L504.981,459.367L421.485,459.367L421.512,323.687L278.552,323.687L278.552,459.367L195.079,459.367L195.079,281.177L239.806,281.177L239.806,236.603L285.138,236.603L285.138,191.13L330.2,191.13L330.2,146.083L369.852,146.083L369.852,191.13L414.934,191.13Z" style="fill-rule:nonzero;"/>
    </g>
</svg>
