<?xml version="1.0" encoding="UTF-8" standalone="no"?>
<!DOCTYPE svg PUBLIC "-//W3C//DTD SVG 1.1//EN" "http://www.w3.org/Graphics/SVG/1.1/DTD/svg11.dtd">
<svg width="100%" height="100%" viewBox="0 0 700 700" version="1.1" xmlns="http://www.w3.org/2000/svg" xmlns:xlink="http://www.w3.org/1999/xlink" xml:space="preserve" xmlns:serif="http://www.serif.com/" style="fill-rule:evenodd;clip-rule:evenodd;stroke-linejoin:round;stroke-miterlimit:2;">
    <g transform="matrix(1,0,0,1,1.946,70.183)">
        <g>
            <path d="M578.82,556.74L532.668,556.74L532.668,510.588L578.82,510.588L578.82,556.74ZM532.668,556.74L486.516,556.74L486.516,510.588L532.668,510.588L532.668,556.74ZM486.516,556.74L440.36,556.74L440.36,510.588L486.516,510.588L486.516,556.74ZM440.36,556.74L394.208,556.74L394.208,510.588L440.36,510.588L440.36,556.74ZM394.208,556.74L348.052,556.74L348.052,510.588L394.208,510.588L394.208,556.74ZM348.052,556.74L301.9,556.74L301.9,510.588L348.052,510.588L348.052,556.74ZM301.9,556.74L255.748,556.74L255.748,510.588L301.9,510.588L301.9,556.74ZM255.748,556.74L209.592,556.74L209.592,510.588L255.748,510.588L255.748,556.74ZM209.592,556.74L163.44,556.74L163.44,510.588L209.592,510.588L209.592,556.74ZM163.44,556.74L117.288,556.74L117.288,510.588L163.44,510.588L163.44,556.74ZM163.44,510.588L117.288,510.588L117.288,464.432L163.44,464.432L163.44,510.588ZM209.592,464.432L163.44,464.432L163.44,418.28L209.592,418.28L209.592,464.432ZM209.592,418.28L163.44,418.28L163.44,372.128L209.592,372.128L209.592,418.28ZM255.748,372.128L209.592,372.128L209.592,325.972L255.748,325.972L255.748,372.128ZM301.9,372.128L255.748,372.128L255.748,325.972L301.9,325.972L301.9,372.128ZM348.052,418.28L301.9,418.28L301.9,372.128L348.052,372.128L348.052,418.28ZM394.208,418.28L348.052,418.28L348.052,372.128L394.208,372.128L394.208,418.28ZM440.36,372.128L394.208,372.128L394.208,325.972L440.36,325.972L440.36,372.128ZM486.516,372.128L440.36,372.128L440.36,325.972L486.516,325.972L486.516,372.128ZM532.668,418.28L486.516,418.28L486.516,372.128L532.668,372.128L532.668,418.28ZM532.668,464.432L486.516,464.432L486.516,418.28L532.668,418.28L532.668,464.432ZM578.82,510.588L532.668,510.588L532.668,464.432L578.82,464.432L578.82,510.588ZM532.668,510.588L486.516,510.588L486.516,464.432L532.668,464.432L532.668,510.588ZM486.516,510.588L440.36,510.588L440.36,464.432L486.516,464.432L486.516,510.588ZM440.36,510.588L394.208,510.588L394.208,464.432L440.36,464.432L440.36,510.588ZM394.208,510.588L348.052,510.588L348.052,464.432L394.208,464.432L394.208,510.588ZM348.052,510.588L301.9,510.588L301.9,464.432L348.052,464.432L348.052,510.588ZM301.9,510.588L255.748,510.588L255.748,464.432L301.9,464.432L301.9,510.588ZM255.748,510.588L209.592,510.588L209.592,464.432L255.748,464.432L255.748,510.588ZM209.592,510.588L163.44,510.588L163.44,464.432L209.592,464.432L209.592,510.588ZM255.748,464.432L209.592,464.432L209.592,418.28L255.748,418.28L255.748,464.432ZM255.748,418.28L209.592,418.28L209.592,372.128L255.748,372.128L255.748,418.28ZM301.9,418.28L255.748,418.28L255.748,372.128L301.9,372.128L301.9,418.28ZM301.9,464.432L255.748,464.432L255.748,418.28L301.9,418.28L301.9,464.432ZM348.052,464.432L301.9,464.432L301.9,418.28L348.052,418.28L348.052,464.432ZM394.208,464.432L348.052,464.432L348.052,418.28L394.208,418.28L394.208,464.432ZM440.36,464.432L394.208,464.432L394.208,418.28L440.36,418.28L440.36,464.432ZM486.516,418.28L440.36,418.28L440.36,372.128L486.516,372.128L486.516,418.28ZM440.36,418.28L394.208,418.28L394.208,372.128L440.36,372.128L440.36,418.28ZM486.516,464.432L440.36,464.432L440.36,418.28L486.516,418.28L486.516,464.432ZM486.516,233.662L440.36,233.662L440.36,187.51L486.516,187.51L486.516,233.662ZM440.36,279.818L394.208,279.818L394.208,233.662L440.36,233.662L440.36,279.818ZM394.208,325.97L348.052,325.97L348.052,279.818L394.208,279.818L394.208,325.97ZM348.052,325.97L301.9,325.97L301.9,279.818L348.052,279.818L348.052,325.97ZM301.9,279.818L255.748,279.818L255.748,233.662L301.9,233.662L301.9,279.818ZM255.748,233.662L209.592,233.662L209.592,187.51L255.748,187.51L255.748,233.662ZM255.748,187.51L209.592,187.51L209.592,141.358L255.748,141.358L255.748,187.51ZM255.748,141.358L209.592,141.358L209.592,95.202L255.748,95.202L255.748,141.358ZM301.9,95.202L255.748,95.202L255.748,49.05L301.9,49.05L301.9,95.202ZM348.052,49.05L301.9,49.05L301.9,2.894L348.052,2.894L348.052,49.05ZM394.208,49.05L348.052,49.05L348.052,2.894L394.208,2.894L394.208,49.05ZM440.36,95.202L394.208,95.202L394.208,49.05L440.36,49.05L440.36,95.202ZM486.516,141.358L440.36,141.358L440.36,95.202L486.516,95.202L486.516,141.358ZM486.516,187.51L440.36,187.51L440.36,141.358L486.516,141.358L486.516,187.51ZM440.36,233.662L394.208,233.662L394.208,187.51L440.36,187.51L440.36,233.662ZM394.208,233.662L348.052,233.662L348.052,187.51L394.208,187.51L394.208,233.662ZM348.052,279.818L301.9,279.818L301.9,233.662L348.052,233.662L348.052,279.818ZM394.208,279.818L348.052,279.818L348.052,233.662L394.208,233.662L394.208,279.818ZM348.052,233.662L301.9,233.662L301.9,187.51L348.052,187.51L348.052,233.662ZM301.9,233.662L255.748,233.662L255.748,187.51L301.9,187.51L301.9,233.662ZM301.9,187.51L255.748,187.51L255.748,141.358L301.9,141.358L301.9,187.51ZM301.9,141.358L255.748,141.358L255.748,95.202L301.9,95.202L301.9,141.358ZM348.052,141.358L301.9,141.358L301.9,95.202L348.052,95.202L348.052,141.358ZM348.052,95.202L301.9,95.202L301.9,49.05L348.052,49.05L348.052,95.202ZM394.208,141.358L348.052,141.358L348.052,95.202L394.208,95.202L394.208,141.358ZM394.208,95.202L348.052,95.202L348.052,49.05L394.208,49.05L394.208,95.202ZM440.36,141.358L394.208,141.358L394.208,95.202L440.36,95.202L440.36,141.358ZM394.208,187.51L348.052,187.51L348.052,141.358L394.208,141.358L394.208,187.51ZM348.052,187.51L301.9,187.51L301.9,141.358L348.052,141.358L348.052,187.51ZM440.361,187.51L394.209,187.51L394.209,141.358L440.361,141.358L440.361,187.51ZM348.052,372.13L301.9,372.13L301.9,325.974L348.052,325.974L348.052,372.13ZM394.208,372.13L348.052,372.13L348.052,325.974L394.208,325.974L394.208,372.13Z"/>
        </g>
    </g>
</svg>
