<?xml version="1.0" encoding="UTF-8" standalone="no"?>
<!DOCTYPE svg PUBLIC "-//W3C//DTD SVG 1.1//EN" "http://www.w3.org/Graphics/SVG/1.1/DTD/svg11.dtd">
<svg width="100%" height="100%" viewBox="0 0 700 700" version="1.1" xmlns="http://www.w3.org/2000/svg" xmlns:xlink="http://www.w3.org/1999/xlink" xml:space="preserve" xmlns:serif="http://www.serif.com/" style="fill-rule:evenodd;clip-rule:evenodd;stroke-linejoin:round;stroke-miterlimit:2;">
    <g transform="matrix(1,0,0,1,3.042,69.442)">
        <g>
            <path d="M173.88,72.863L139.263,72.863L139.263,38.246L173.88,38.246L173.88,72.863ZM139.263,72.863L104.65,72.863L104.65,38.246L139.263,38.246L139.263,72.863ZM139.263,107.48L104.65,107.48L104.65,72.863L139.263,72.863L139.263,107.48ZM173.88,107.48L139.263,107.48L139.263,72.863L173.88,72.863L173.88,107.48ZM104.65,72.863L70.033,72.863L70.033,38.246L104.65,38.246L104.65,72.863ZM104.65,107.48L70.033,107.48L70.033,72.863L104.65,72.863L104.65,107.48ZM139.263,38.246L104.65,38.246L104.65,3.633L139.263,3.633L139.263,38.246ZM173.88,38.246L139.263,38.246L139.263,3.633L173.88,3.633L173.88,38.246ZM208.493,72.863L173.88,72.863L173.88,38.246L208.493,38.246L208.493,72.863ZM208.493,107.48L173.88,107.48L173.88,72.863L208.493,72.863L208.493,107.48ZM173.88,142.093L139.263,142.093L139.263,107.48L173.88,107.48L173.88,142.093ZM139.263,142.093L104.65,142.093L104.65,107.48L139.263,107.48L139.263,142.093ZM312.343,72.863L277.73,72.863L277.73,38.246L312.343,38.246L312.343,72.863ZM346.96,72.863L312.343,72.863L312.343,38.246L346.96,38.246L346.96,72.863ZM381.573,72.863L346.96,72.863L346.96,38.246L381.573,38.246L381.573,72.863ZM416.19,72.863L381.573,72.863L381.573,38.246L416.19,38.246L416.19,72.863ZM450.803,72.863L416.19,72.863L416.19,38.246L450.803,38.246L450.803,72.863ZM485.42,72.863L450.803,72.863L450.803,38.246L485.42,38.246L485.42,72.863ZM520.033,72.863L485.42,72.863L485.42,38.246L520.033,38.246L520.033,72.863ZM520.033,107.48L485.42,107.48L485.42,72.863L520.033,72.863L520.033,107.48ZM485.42,107.48L450.803,107.48L450.803,72.863L485.42,72.863L485.42,107.48ZM450.803,107.48L416.19,107.48L416.19,72.863L450.803,72.863L450.803,107.48ZM416.19,107.48L381.573,107.48L381.573,72.863L416.19,72.863L416.19,107.48ZM381.573,107.48L346.96,107.48L346.96,72.863L381.573,72.863L381.573,107.48ZM346.96,107.48L312.343,107.48L312.343,72.863L346.96,72.863L346.96,107.48ZM312.343,107.48L277.73,107.48L277.73,72.863L312.343,72.863L312.343,107.48ZM173.883,245.94L139.266,245.94L139.266,211.323L173.883,211.323L173.883,245.94ZM139.266,245.94L104.653,245.94L104.653,211.323L139.266,211.323L139.266,245.94ZM104.653,280.553L70.036,280.553L70.036,245.94L104.653,245.94L104.653,280.553ZM104.653,315.17L70.036,315.17L70.036,280.553L104.653,280.553L104.653,315.17ZM139.266,315.17L104.653,315.17L104.653,280.553L139.266,280.553L139.266,315.17ZM139.266,280.553L104.653,280.553L104.653,245.94L139.266,245.94L139.266,280.553ZM173.883,280.553L139.266,280.553L139.266,245.94L173.883,245.94L173.883,280.553ZM173.883,315.17L139.266,315.17L139.266,280.553L173.883,280.553L173.883,315.17ZM139.266,349.783L104.653,349.783L104.653,315.17L139.266,315.17L139.266,349.783ZM173.883,349.783L139.266,349.783L139.266,315.17L173.883,315.17L173.883,349.783ZM208.496,315.17L173.883,315.17L173.883,280.553L208.496,280.553L208.496,315.17ZM208.496,280.553L173.883,280.553L173.883,245.94L208.496,245.94L208.496,280.553ZM312.346,280.553L277.733,280.553L277.733,245.94L312.346,245.94L312.346,280.553ZM346.963,280.553L312.346,280.553L312.346,245.94L346.963,245.94L346.963,280.553ZM381.576,280.553L346.963,280.553L346.963,245.94L381.576,245.94L381.576,280.553ZM416.193,280.553L381.576,280.553L381.576,245.94L416.193,245.94L416.193,280.553ZM450.806,280.553L416.193,280.553L416.193,245.94L450.806,245.94L450.806,280.553ZM485.423,280.553L450.806,280.553L450.806,245.94L485.423,245.94L485.423,280.553ZM520.036,280.553L485.423,280.553L485.423,245.94L520.036,245.94L520.036,280.553ZM554.653,280.553L520.036,280.553L520.036,245.94L554.653,245.94L554.653,280.553ZM554.653,107.483L520.036,107.483L520.036,72.866L554.653,72.866L554.653,107.483ZM554.653,72.866L520.036,72.866L520.036,38.249L554.653,38.249L554.653,72.866ZM554.653,315.176L520.036,315.176L520.036,280.559L554.653,280.559L554.653,315.176ZM520.036,315.176L485.423,315.176L485.423,280.559L520.036,280.559L520.036,315.176ZM485.423,315.176L450.806,315.176L450.806,280.559L485.423,280.559L485.423,315.176ZM450.806,315.176L416.193,315.176L416.193,280.559L450.806,280.559L450.806,315.176ZM416.193,315.176L381.576,315.176L381.576,280.559L416.193,280.559L416.193,315.176ZM381.576,315.176L346.963,315.176L346.963,280.559L381.576,280.559L381.576,315.176ZM346.963,315.176L312.346,315.176L312.346,280.559L346.963,280.559L346.963,315.176ZM312.346,315.176L277.733,315.176L277.733,280.559L312.346,280.559L312.346,315.176ZM173.886,453.636L139.269,453.636L139.269,419.019L173.886,419.019L173.886,453.636ZM139.269,453.636L104.656,453.636L104.656,419.019L139.269,419.019L139.269,453.636ZM139.269,488.249L104.656,488.249L104.656,453.636L139.269,453.636L139.269,488.249ZM173.886,488.249L139.269,488.249L139.269,453.636L173.886,453.636L173.886,488.249ZM173.886,522.866L139.269,522.866L139.269,488.249L173.886,488.249L173.886,522.866ZM208.499,488.249L173.886,488.249L173.886,453.636L208.499,453.636L208.499,488.249ZM208.499,522.866L173.886,522.866L173.886,488.249L208.499,488.249L208.499,522.866ZM139.269,522.866L104.656,522.866L104.656,488.249L139.269,488.249L139.269,522.866ZM139.269,557.483L104.656,557.483L104.656,522.866L139.269,522.866L139.269,557.483ZM173.886,557.483L139.269,557.483L139.269,522.866L173.886,522.866L173.886,557.483ZM104.656,522.866L70.039,522.866L70.039,488.249L104.656,488.249L104.656,522.866ZM104.656,488.249L70.039,488.249L70.039,453.636L104.656,453.636L104.656,488.249ZM312.346,488.249L277.733,488.249L277.733,453.636L312.346,453.636L312.346,488.249ZM346.963,488.249L312.346,488.249L312.346,453.636L346.963,453.636L346.963,488.249ZM416.193,488.249L381.576,488.249L381.576,453.636L416.193,453.636L416.193,488.249ZM450.806,488.249L416.193,488.249L416.193,453.636L450.806,453.636L450.806,488.249ZM485.423,488.249L450.806,488.249L450.806,453.636L485.423,453.636L485.423,488.249ZM520.036,488.249L485.423,488.249L485.423,453.636L520.036,453.636L520.036,488.249ZM554.653,488.249L520.036,488.249L520.036,453.636L554.653,453.636L554.653,488.249ZM554.653,522.866L520.036,522.866L520.036,488.249L554.653,488.249L554.653,522.866ZM520.036,522.866L485.423,522.866L485.423,488.249L520.036,488.249L520.036,522.866ZM485.423,522.866L450.806,522.866L450.806,488.249L485.423,488.249L485.423,522.866ZM450.806,522.866L416.193,522.866L416.193,488.249L450.806,488.249L450.806,522.866ZM416.193,522.866L381.576,522.866L381.576,488.249L416.193,488.249L416.193,522.866ZM381.576,522.866L346.963,522.866L346.963,488.249L381.576,488.249L381.576,522.866ZM346.963,522.866L312.346,522.866L312.346,488.249L346.963,488.249L346.963,522.866ZM312.346,522.866L277.733,522.866L277.733,488.249L312.346,488.249L312.346,522.866ZM381.576,488.249L346.963,488.249L346.963,453.636L381.576,453.636L381.576,488.249ZM589.266,488.249L554.653,488.249L554.653,453.636L589.266,453.636L589.266,488.249ZM623.883,488.249L589.266,488.249L589.266,453.636L623.883,453.636L623.883,488.249ZM623.883,522.866L589.266,522.866L589.266,488.249L623.883,488.249L623.883,522.866ZM589.266,522.866L554.653,522.866L554.653,488.249L589.266,488.249L589.266,522.866ZM589.266,315.176L554.653,315.176L554.653,280.559L589.266,280.559L589.266,315.176ZM623.883,315.176L589.266,315.176L589.266,280.559L623.883,280.559L623.883,315.176ZM623.883,280.559L589.266,280.559L589.266,245.946L623.883,245.946L623.883,280.559ZM589.266,280.559L554.653,280.559L554.653,245.946L589.266,245.946L589.266,280.559ZM589.266,107.489L554.653,107.489L554.653,72.872L589.266,72.872L589.266,107.489ZM623.883,107.489L589.266,107.489L589.266,72.872L623.883,72.872L623.883,107.489ZM623.883,72.872L589.266,72.872L589.266,38.255L623.883,38.255L623.883,72.872ZM589.266,72.872L554.653,72.872L554.653,38.255L589.266,38.255L589.266,72.872Z"/>
        </g>
    </g>
</svg>
