<?xml version="1.0" encoding="UTF-8" standalone="no"?>
<!DOCTYPE svg PUBLIC "-//W3C//DTD SVG 1.1//EN" "http://www.w3.org/Graphics/SVG/1.1/DTD/svg11.dtd">
<svg width="100%" height="100%" viewBox="0 0 700 700" version="1.1" xmlns="http://www.w3.org/2000/svg" xmlns:xlink="http://www.w3.org/1999/xlink" xml:space="preserve" xmlns:serif="http://www.serif.com/" style="fill-rule:evenodd;clip-rule:evenodd;stroke-linejoin:round;stroke-miterlimit:2;">
    <g transform="matrix(1,0,0,1,1.896,68.012)">
        <g>
            <path d="M423.63,55.414L473.978,55.414L473.978,5.062L423.63,5.062L423.63,55.414ZM373.278,55.414L423.63,55.414L423.63,5.062L373.278,5.062L373.278,55.414ZM322.93,55.414L373.278,55.414L373.278,5.062L322.93,5.062L322.93,55.414ZM272.578,55.414L322.93,55.414L322.93,5.062L272.578,5.062L272.578,55.414ZM222.23,55.414L272.578,55.414L272.578,5.062L222.23,5.062L222.23,55.414ZM171.878,105.762L222.23,105.762L222.23,55.414L171.878,55.414L171.878,105.762ZM121.53,156.114L171.878,156.114L171.878,105.762L121.53,105.762L121.53,156.114ZM71.178,206.462L121.53,206.462L121.53,156.114L71.178,156.114L71.178,206.462ZM71.178,256.814L121.53,256.814L121.53,206.462L71.178,206.462L71.178,256.814ZM71.178,307.162L121.53,307.162L121.53,256.814L71.178,256.814L71.178,307.162ZM71.178,357.514L121.53,357.514L121.53,307.162L71.178,307.162L71.178,357.514ZM71.178,407.862L121.53,407.862L121.53,357.514L71.178,357.514L71.178,407.862ZM121.53,458.214L171.878,458.214L171.878,407.862L121.53,407.862L121.53,458.214ZM171.878,508.562L222.23,508.562L222.23,458.214L171.878,458.214L171.878,508.562ZM222.23,558.914L272.578,558.914L272.578,508.562L222.23,508.562L222.23,558.914ZM272.578,558.914L322.93,558.914L322.93,508.562L272.578,508.562L272.578,558.914ZM322.93,558.914L373.278,558.914L373.278,508.562L322.93,508.562L322.93,558.914ZM373.278,558.914L423.63,558.914L423.63,508.562L373.278,508.562L373.278,558.914ZM423.63,558.914L473.978,558.914L473.978,508.562L423.63,508.562L423.63,558.914ZM473.978,508.562L524.33,508.562L524.33,458.214L473.978,458.214L473.978,508.562ZM524.33,458.214L574.678,458.214L574.678,407.862L524.33,407.862L524.33,458.214ZM574.678,407.862L625.03,407.862L625.03,357.514L574.678,357.514L574.678,407.862ZM574.678,357.514L625.03,357.514L625.03,307.162L574.678,307.162L574.678,357.514ZM574.678,307.162L625.03,307.162L625.03,256.814L574.678,256.814L574.678,307.162ZM574.678,256.814L625.03,256.814L625.03,206.462L574.678,206.462L574.678,256.814ZM574.678,206.462L625.03,206.462L625.03,156.114L574.678,156.114L574.678,206.462ZM524.33,156.114L574.678,156.114L574.678,105.762L524.33,105.762L524.33,156.114ZM473.978,105.762L524.33,105.762L524.33,55.414L473.978,55.414L473.978,105.762ZM121.528,256.812L171.876,256.812L171.876,206.46L121.528,206.46L121.528,256.812ZM222.228,256.812L272.576,256.812L272.576,206.46L222.228,206.46L222.228,256.812ZM171.876,256.812L222.228,256.812L222.228,206.46L171.876,206.46L171.876,256.812ZM171.876,206.46L222.228,206.46L222.228,156.112L171.876,156.112L171.876,206.46ZM121.528,206.46L171.876,206.46L171.876,156.112L121.528,156.112L121.528,206.46ZM222.228,206.46L272.576,206.46L272.576,156.112L222.228,156.112L222.228,206.46ZM222.228,156.112L272.576,156.112L272.576,105.76L222.228,105.76L222.228,156.112ZM272.576,105.76L322.928,105.76L322.928,55.412L272.576,55.412L272.576,105.76ZM222.228,105.76L272.576,105.76L272.576,55.412L222.228,55.412L222.228,105.76ZM171.876,156.112L222.228,156.112L222.228,105.76L171.876,105.76L171.876,156.112ZM121.528,407.862L171.876,407.862L171.876,357.514L121.528,357.514L121.528,407.862ZM524.328,256.812L574.676,256.812L574.676,206.46L524.328,206.46L524.328,256.812ZM473.976,256.812L524.328,256.812L524.328,206.46L473.976,206.46L473.976,256.812ZM423.628,307.16L473.976,307.16L473.976,256.812L423.628,256.812L423.628,307.16ZM423.628,357.512L473.976,357.512L473.976,307.16L423.628,307.16L423.628,357.512ZM473.976,407.86L524.328,407.86L524.328,357.512L473.976,357.512L473.976,407.86ZM524.328,407.86L574.676,407.86L574.676,357.512L524.328,357.512L524.328,407.86ZM524.328,357.512L574.676,357.512L574.676,307.16L524.328,307.16L524.328,357.512ZM524.328,307.16L574.676,307.16L574.676,256.812L524.328,256.812L524.328,307.16ZM473.976,307.16L524.328,307.16L524.328,256.812L473.976,256.812L473.976,307.16ZM473.976,357.512L524.328,357.512L524.328,307.16L473.976,307.16L473.976,357.512ZM473.976,156.112L524.328,156.112L524.328,105.76L473.976,105.76L473.976,156.112ZM473.976,206.46L524.328,206.46L524.328,156.112L473.976,156.112L473.976,206.46ZM423.628,156.112L473.976,156.112L473.976,105.76L423.628,105.76L423.628,156.112ZM423.628,105.76L473.976,105.76L473.976,55.412L423.628,55.412L423.628,105.76ZM373.276,156.112L423.628,156.112L423.628,105.76L373.276,105.76L373.276,156.112ZM423.628,206.46L473.976,206.46L473.976,156.112L423.628,156.112L423.628,206.46ZM171.878,407.86L222.23,407.86L222.23,357.512L171.878,357.512L171.878,407.86ZM222.23,458.212L272.578,458.212L272.578,407.86L222.23,407.86L222.23,458.212ZM222.23,508.56L272.578,508.56L272.578,458.212L222.23,458.212L222.23,508.56ZM171.878,458.212L222.23,458.212L222.23,407.86L171.878,407.86L171.878,458.212ZM222.23,307.162L272.578,307.162L272.578,256.814L222.23,256.814L222.23,307.162ZM272.578,307.162L322.93,307.162L322.93,256.814L272.578,256.814L272.578,307.162Z"/>
        </g>
    </g>
</svg>
